<svg version="1.1" id="Layer_1" xmlns="http://www.w3.org/2000/svg" xmlns:xlink="http://www.w3.org/1999/xlink" x="0px" y="0px"
	 width="100%" viewBox="0 0 900 500" enable-background="new 0 0 900 500" xml:space="preserve">
<path fill="none" opacity="1.000000" stroke="#000000" stroke-linecap="round" stroke-linejoin="round" stroke-width="3.000000"
	d="
M221.500000,168.000000 
	C217.935059,166.547729 214.444763,165.022629 210.462509,166.921371 
	C209.376144,167.439331 207.833328,167.000000 206.500000,167.000000 
	C146.166672,167.000000 85.833336,167.000000 25.500000,167.000000 
	C23.816668,167.000000 22.133333,167.000000 20.250000,167.000000 
	C20.250000,255.500000 20.250000,343.500000 20.250000,432.000000 
	C130.832825,432.000000 241.166412,432.000000 351.500000,432.000000 
"/>
<path fill="none" opacity="1.000000" stroke="#000000" stroke-linecap="round" stroke-linejoin="round" stroke-width="3.000000"
	d="
M686.500000,168.000000 
	C690.064941,166.547729 693.555237,165.022614 697.537476,166.921387 
	C698.623840,167.439346 700.166687,167.000000 701.500000,167.000000 
	C759.833313,167.000000 818.166687,167.000000 876.500000,167.000000 
	C878.183350,167.000000 879.866638,167.000000 881.750000,167.000000 
	C881.750000,255.500000 881.750000,343.500000 881.750000,432.000000 
	C772.833862,432.000000 664.166931,432.000000 555.500000,432.000000 
"/>
<path fill="none" opacity="1.000000" stroke="#000000" stroke-linecap="round" stroke-linejoin="round" stroke-width="2.000000"
	d="
M213.000000,177.000000 
	C211.228180,176.156647 209.338669,176.514160 207.500000,176.513657 
	C148.000000,176.497101 88.500000,176.500000 28.750000,176.500000 
	C28.750000,258.665985 28.750000,340.833008 28.750000,423.500000 
	C136.166153,423.500000 243.833069,423.500000 351.500000,423.500000 
"/>
<path fill="none" opacity="1.000000" stroke="#000000" stroke-linecap="round" stroke-linejoin="round" stroke-width="2.000000"
	d="
M555.500000,423.500000 
	C661.000000,423.500000 766.500000,423.500000 872.250000,423.500000 
	C872.250000,341.334015 872.250000,259.166992 872.250000,176.750000 
	C812.166687,176.750000 751.833313,176.750000 691.162415,176.750000 
	C692.694336,179.547806 695.553711,179.241272 697.500000,180.500000 
"/>
<path fill="none" opacity="1.000000" stroke="#000000" stroke-linecap="round" stroke-linejoin="round" stroke-width="14.000000"
	d="
M197.000000,250.000000 
	C196.333328,246.333328 195.707062,242.658752 194.989853,239.001984 
	C194.080566,234.365952 190.556610,232.710709 186.497543,232.571808 
	C175.504715,232.195602 164.497864,231.964691 153.500854,232.081207 
	C147.583679,232.143875 145.500000,234.737381 145.500000,240.500000 
	C145.500000,262.333344 145.538651,284.166779 145.470825,305.999908 
	C145.455292,311.000519 146.775406,315.961670 145.570190,321.016724 
	C144.998047,323.416443 147.480194,323.971466 148.998764,325.001831 
	C154.606750,328.806915 161.029602,329.248657 167.500000,329.500000 
"/>
<path fill="none" opacity="1.000000" stroke="#000000" stroke-linecap="round" stroke-linejoin="round" stroke-width="6.000000"
	d="
M682.000000,242.000000 
	C680.738892,242.022263 679.917603,241.708221 678.928345,240.561798 
	C663.943054,223.194748 641.566528,228.807404 631.556946,247.031265 
	C623.260254,262.136627 626.242676,284.384003 638.426331,295.580139 
	C649.419189,305.682037 667.916321,305.700928 676.505432,295.004364 
	C677.931885,293.227997 679.845886,292.162598 682.000000,291.500000 
"/>
<path fill="none" opacity="1.000000" stroke="#000000" stroke-linecap="round" stroke-linejoin="round" stroke-width="3.000000"
	d="
M646.500000,163.000000 
	C649.754517,161.135605 653.520691,161.249878 657.021973,160.622513 
	C670.203186,158.260742 679.446289,148.809982 682.438416,135.985626 
	C684.563232,126.878670 684.447449,118.302765 677.648315,110.372833 
	C671.250122,102.910477 657.772522,102.803223 652.467285,105.944778 
	C648.797424,108.117928 647.884155,111.278244 648.561096,114.988853 
	C649.323730,119.169144 652.316284,121.831787 656.033020,123.422935 
	C658.067322,124.293861 660.826050,121.440521 660.446045,119.008430 
	C660.256104,117.793320 659.499939,116.666679 658.999939,115.500015 
"/>
<path fill="none" opacity="1.000000" stroke="#000000" stroke-linecap="round" stroke-linejoin="round" stroke-width="2.000000"
	d="
M503.500000,176.000000 
	C502.646179,177.043808 501.487183,176.467926 500.499969,176.469116 
	C469.166656,176.506714 437.833344,176.506714 406.500031,176.469116 
	C405.512817,176.467926 404.353821,177.043808 403.500000,176.000000 
"/>
<path fill="none" opacity="1.000000" stroke="#000000" stroke-linecap="round" stroke-linejoin="round" stroke-width="3.000000"
	d="
M540.500000,168.000000 
	C539.058716,166.539612 537.213257,167.013138 535.500000,167.012650 
	C480.833344,166.997269 426.166656,166.997269 371.500000,167.012650 
	C369.786713,167.013138 367.941254,166.539612 366.500000,168.000000 
"/>
<path fill="none" opacity="1.000000" stroke="#000000" stroke-linecap="round" stroke-linejoin="round" stroke-width="3.000000"
	d="
M540.000000,123.000000 
	C534.105347,120.896194 530.882202,115.424240 526.054688,111.924599 
	C509.994995,100.282356 492.671082,93.780785 472.494354,96.964241 
	C463.898529,98.320480 455.228241,99.092873 446.500427,98.493851 
	C443.292969,98.273712 440.189270,97.319626 437.031708,96.805305 
	C419.016388,93.870865 402.694611,97.908508 387.511475,107.518112 
	C382.585266,110.635971 377.862549,114.006157 373.928741,118.436729 
	C372.541321,119.999329 370.333344,120.833336 368.500000,122.000000 
"/>
<path fill="none" opacity="1.000000" stroke="#000000" stroke-linecap="round" stroke-linejoin="round" stroke-width="2.000000"
	d="
M430.500000,443.500000 
	C423.666656,444.901001 416.778931,445.830200 410.019897,443.443695 
	C405.801178,441.954132 402.143280,439.737366 401.449585,434.506683 
	C400.489075,427.263947 405.130341,421.585480 412.500092,421.507751 
	C425.503174,421.370636 436.631744,427.338257 447.998413,432.503479 
	C460.029968,437.970795 471.884399,444.101593 485.030182,446.321259 
	C490.278778,447.207489 495.935852,447.191772 501.034790,444.056580 
	C506.973419,440.405182 508.911804,434.936646 505.999969,428.500000 
	C502.949402,421.756653 495.199005,417.765778 489.499664,419.999115 
	C486.025024,421.360687 485.024475,424.035278 485.500000,427.500000 
"/>
<path fill="none" opacity="1.000000" stroke="#000000" stroke-linecap="round" stroke-linejoin="round" stroke-width="5.000000"
	d="
M249.500000,116.000000 
	C245.373779,117.093445 247.104858,119.797089 248.053680,121.976631 
	C249.249435,124.723473 251.468277,123.216560 252.964584,122.432419 
	C257.320831,120.149513 260.239227,113.925201 259.019379,110.493118 
	C257.192963,105.354553 249.052795,102.640610 245.003510,103.035904 
	C230.880173,104.414627 221.393204,115.946609 224.340515,132.029221 
	C227.819885,151.015121 238.983292,159.368637 254.999298,161.006927 
	C256.700714,161.180954 258.406708,161.418259 259.500000,163.000000 
"/>
<path fill="none" opacity="1.000000" stroke="#000000" stroke-linecap="round" stroke-linejoin="round" stroke-width="14.000000"
	d="
M805.500000,309.500000 
	C804.737915,313.847046 804.794006,318.337280 803.021545,322.509155 
	C801.863281,325.235382 800.177673,326.800110 797.004150,327.052124 
	C782.977905,328.165955 768.906067,329.476196 755.022827,326.397034 
	C746.010864,324.398254 746.344360,323.944061 745.953918,315.002014 
	C744.964111,292.336334 745.856140,269.665283 745.500977,246.999985 
	C745.493164,246.500107 745.532349,245.997559 745.494690,245.500397 
	C745.255005,242.332962 746.193909,237.731628 744.489258,236.313354 
	C741.405090,233.747299 737.322693,231.634918 732.994385,231.041016 
	C730.190979,230.656326 727.333313,230.666656 724.500000,230.500000 
"/>
<path fill="none" opacity="1.000000" stroke="#000000" stroke-linecap="round" stroke-linejoin="round" stroke-width="3.000000"
	d="
M450.000000,341.500000 
	C450.000000,348.333344 449.996429,355.166656 450.001007,362.000000 
	C450.005524,368.742523 453.266602,372.000000 460.000000,372.000000 
	C466.013885,372.000000 469.877045,368.229645 469.975403,361.999603 
	C470.083313,355.167969 470.000000,348.333344 470.000000,341.500000 
"/>
<path fill="none" opacity="1.000000" stroke="#000000" stroke-linecap="round" stroke-linejoin="round" stroke-width="7.000000"
	d="
M358.500000,271.000000 
	C360.600067,268.492737 363.731506,267.807739 366.505920,266.512695 
	C374.008453,263.010712 377.015076,255.450287 376.473145,249.002258 
	C375.874298,241.876862 370.708588,235.453979 363.476288,234.129456 
	C355.784668,232.720825 347.760559,230.663269 340.500000,236.000000 
"/>
<path fill="none" opacity="1.000000" stroke="#000000" stroke-linecap="round" stroke-linejoin="round" stroke-width="2.000000"
	d="
M536.000000,176.500000 
	C557.166687,176.500000 578.333374,176.518066 599.499939,176.464981 
	C601.156860,176.460800 602.922546,177.058701 604.500000,176.000000 
"/>
<path fill="none" opacity="1.000000" stroke="#000000" stroke-linecap="round" stroke-linejoin="round" stroke-width="2.000000"
	d="
M371.500000,176.500000 
	C350.500000,176.500000 329.499939,176.518204 308.500092,176.464966 
	C306.843109,176.460770 305.077454,177.058701 303.500000,176.000000 
"/>
<path fill="none" opacity="1.000000" stroke="#000000" stroke-linecap="round" stroke-linejoin="round" stroke-width="2.000000"
	d="
M507.500000,436.500000 
	C512.884521,435.705841 517.697998,432.008179 518.435425,427.489471 
	C519.280334,422.312378 517.279419,418.035706 512.987549,415.017670 
	C505.716400,409.904572 497.653320,410.174896 489.508575,412.037506 
	C483.395966,413.435425 478.075897,416.794250 472.500000,419.500000 
"/>
<path fill="none" opacity="1.000000" stroke="#000000" stroke-linecap="round" stroke-linejoin="round" stroke-width="7.000000"
	d="
M801.500000,250.000000 
	C800.888489,249.426422 799.422241,250.143585 799.462341,248.499084 
	C799.490784,247.337173 799.137939,246.169937 799.004578,244.999481 
	C797.855042,234.912323 795.180359,232.252350 784.999023,232.046997 
	C774.503296,231.835342 763.999512,232.056137 753.500305,231.963303 
	C750.621887,231.937851 748.416748,233.028015 746.500000,235.000000 
"/>
<path fill="none" opacity="1.000000" stroke="#000000" stroke-linecap="round" stroke-linejoin="round" stroke-width="7.000000"
	d="
M144.500000,235.000000 
	C142.193878,232.506256 139.316284,231.878464 135.998978,231.956070 
	C126.500679,232.178284 116.999611,231.855057 107.496513,232.443649 
	C99.732094,232.924545 97.122566,235.056137 95.516182,243.503082 
	C95.076309,245.816147 94.833328,248.166672 94.500000,250.500000 
"/>
<path fill="none" opacity="1.000000" stroke="#000000" stroke-linecap="round" stroke-linejoin="round" stroke-width="5.000000"
	d="
M386.500000,417.500000 
	C393.887878,408.447479 404.161102,407.524414 414.482361,408.660278 
	C427.281342,410.068878 438.834961,415.724762 450.565186,420.850800 
	C463.497040,426.502045 476.264099,432.747925 490.471252,435.168701 
	C495.639801,436.049347 500.864929,436.470703 506.000000,437.500000 
"/>
<path fill="none" opacity="1.000000" stroke="#000000" stroke-linecap="round" stroke-linejoin="round" stroke-width="3.000000"
	d="
M351.500000,345.500000 
	C349.700653,341.245911 345.884857,341.658142 342.518433,342.131226 
	C340.192566,342.458099 338.319977,344.391235 338.044952,347.004730 
	C337.798859,349.343048 338.154877,351.391846 340.428406,353.095551 
	C342.788788,354.864349 345.556580,355.550781 348.013702,356.976379 
	C352.864868,359.790894 354.958374,365.001007 352.499969,368.499969 
	C349.662537,372.538361 343.095886,373.337341 339.038177,369.954224 
	C337.792450,368.915619 337.000000,367.333344 336.000000,366.000000 
"/>
<path fill="none" opacity="1.000000" stroke="#000000" stroke-linecap="round" stroke-linejoin="round" stroke-width="10.000000"
	d="
M394.000000,302.000000 
	C381.053986,302.105652 373.183624,294.156128 366.541840,284.471283 
	C363.692749,280.316803 360.011597,276.835510 357.768524,272.109863 
	C356.685364,269.827881 353.000732,269.067841 349.999786,269.012207 
	C347.000793,268.956543 344.000000,269.000000 341.000000,269.000000 
"/>
<path fill="none" opacity="1.000000" stroke="#000000" stroke-linecap="round" stroke-linejoin="round" stroke-width="3.000000"
	d="
M578.500000,133.000000 
	C580.666687,132.531113 582.677673,132.374115 585.026245,132.877640 
	C596.863159,135.415604 608.784119,137.752014 620.996460,135.975494 
	C627.214111,135.070999 633.153381,133.414520 638.027039,129.030045 
	C640.694763,126.630104 640.598083,123.550842 639.348572,121.076469 
	C637.777100,117.964577 634.298279,117.340240 631.015320,118.069092 
	C628.561157,118.613945 627.813477,120.797218 628.595337,122.965622 
	C629.082642,124.317146 630.500000,125.333328 631.500000,126.499992 
"/>
<path fill="none" opacity="1.000000" stroke="#000000" stroke-linecap="round" stroke-linejoin="round" stroke-width="7.000000"
	d="
M285.500000,284.500000 
	C285.000000,286.333344 284.381805,288.143677 284.020142,290.003906 
	C282.311981,298.789154 281.198334,299.831329 272.499695,299.982849 
	C267.167969,300.075745 261.832764,299.951141 256.500153,300.013733 
	C251.161728,300.076385 246.644287,297.609161 242.000000,295.500000 
"/>
<path fill="none" opacity="1.000000" stroke="#000000" stroke-linecap="round" stroke-linejoin="round" stroke-width="4.000000"
	d="
M288.000000,161.500000 
	C283.110474,161.518646 278.264008,161.284225 274.411438,165.417450 
	C273.065674,166.861252 270.889496,167.023239 268.479095,166.627335 
	C257.237122,164.780899 246.215515,166.151062 235.500000,170.000000 
"/>
<path fill="none" opacity="1.000000" stroke="#000000" stroke-linecap="round" stroke-linejoin="round" stroke-width="13.000000"
	d="
M458.000000,302.000000 
	C452.700104,302.357910 448.062561,300.732544 443.412415,298.158234 
	C440.696411,296.654633 440.469208,294.522583 440.596893,292.506134 
	C441.620697,276.339111 440.832367,260.166412 440.959106,243.999680 
	C441.016968,236.620972 437.948242,233.558563 429.493317,232.037186 
	C427.204102,231.625244 424.833344,231.666672 422.500000,231.500000 
"/>
<path fill="none" opacity="1.000000" stroke="#000000" stroke-linecap="round" stroke-linejoin="round" stroke-width="4.000000"
	d="
M345.500000,83.500000 
	C336.921844,91.785316 337.869812,100.316925 348.000000,106.000000 
	C353.691650,109.193039 354.403992,111.364395 353.092682,117.519745 
	C352.263031,121.414009 352.333344,125.500000 352.000000,129.500000 
"/>
<path fill="none" opacity="1.000000" stroke="#000000" stroke-linecap="round" stroke-linejoin="round" stroke-width="6.000000"
	d="
M281.000000,248.000000 
	C280.500000,245.166672 280.022247,242.329178 279.494690,239.500992 
	C278.722351,235.360687 275.927460,233.247650 271.997101,233.060791 
	C264.173523,232.688812 256.333344,232.558533 248.500000,232.558792 
	C245.767761,232.558884 243.425507,234.017685 241.500000,236.000000 
"/>
<path fill="none" opacity="1.000000" stroke="#000000" stroke-linecap="round" stroke-linejoin="round" stroke-width="13.000000"
	d="
M323.000000,302.000000 
	C329.393829,302.554565 334.924774,300.132141 340.000000,296.878693 
	C340.000000,278.667419 340.030151,260.333618 339.981476,242.000046 
	C339.967041,236.560165 338.897858,235.318741 332.491486,233.023743 
	C329.283905,231.874664 325.926392,231.379578 322.500000,231.500000 
"/>
<path fill="none" opacity="1.000000" stroke="#000000" stroke-linecap="round" stroke-linejoin="round" stroke-width="3.000000"
	d="
M223.500000,164.500000 
	C223.169159,167.721664 224.031464,170.646957 225.425369,173.536011 
	C225.832581,174.380005 225.916702,174.909164 226.996262,175.032669 
	C232.949356,175.713715 234.020355,180.255341 234.451599,185.004395 
	C234.816589,189.023819 236.306839,192.061081 239.986496,194.025299 
	C246.046677,197.260239 255.169983,196.199661 259.992371,191.492172 
	C261.695160,189.829941 262.832672,187.816452 261.449310,185.530685 
	C260.272217,183.585724 258.167206,183.423172 255.999359,183.451447 
	C253.929291,183.478455 252.340591,183.979721 251.450272,185.949432 
	C252.941223,187.460556 254.786758,186.899521 256.500000,187.000000 
"/>
<path fill="none" opacity="1.000000" stroke="#000000" stroke-linecap="round" stroke-linejoin="round" stroke-width="3.000000"
	d="
M495.000000,358.000000 
	C497.333344,358.000000 499.668365,357.942230 501.999664,358.011414 
	C507.784119,358.183136 510.716095,355.925446 511.000000,351.000000 
	C511.288757,345.990479 507.833435,342.276581 502.498932,342.022156 
	C499.827972,341.894806 497.145966,342.000000 494.000000,342.000000 
	C494.000000,352.160919 494.000000,361.830475 494.000000,371.500000 
"/>
<path fill="none" opacity="1.000000" stroke="#000000" stroke-linecap="round" stroke-linejoin="round" stroke-width="12.000000"
	d="
M223.500000,301.500000 
	C229.879639,301.870392 235.498505,300.131226 240.590286,296.114441 
	C241.917160,295.067688 242.067444,294.209290 241.980148,293.001434 
	C240.956863,278.842987 241.921417,264.663452 241.492325,250.500229 
	C241.376144,246.665375 241.035950,242.832870 241.049149,239.000168 
	C241.057053,236.709106 239.683563,235.887543 238.011810,234.978287 
	C233.473526,232.509903 228.745132,230.960617 223.500000,231.500000 
"/>
<path fill="none" opacity="1.000000" stroke="#000000" stroke-linecap="round" stroke-linejoin="round" stroke-width="3.000000"
	d="
M271.500000,358.000000 
	C276.324036,354.703918 278.009583,351.461090 276.479919,348.008881 
	C274.395477,343.304504 271.861115,340.676300 260.000000,342.580261 
	C260.000000,352.160919 260.000000,361.830475 260.000000,371.500000 
"/>
<path fill="none" opacity="1.000000" stroke="#000000" stroke-linecap="round" stroke-linejoin="round" stroke-width="7.000000"
	d="
M458.000000,271.500000 
	C459.939941,269.066559 462.789551,268.175629 465.491699,266.981201 
	C473.654358,263.373138 478.432281,255.838501 477.000000,249.000000 
	C474.945740,239.192001 467.600372,232.775833 458.002991,233.090790 
	C452.428772,233.273697 446.270020,230.985168 441.500000,236.000000 
"/>
<path fill="none" opacity="1.000000" stroke="#000000" stroke-linecap="round" stroke-linejoin="round" stroke-width="3.000000"
	d="
M691.000000,177.500000 
	C688.824951,177.700226 686.552368,177.066696 685.092773,175.885345 
	C682.116272,173.476120 679.701843,175.527313 676.991272,175.942917 
	C673.472168,176.482483 675.472473,179.394485 674.611267,181.057617 
	C673.346191,183.500702 672.934387,186.370148 671.978882,188.992294 
	C670.032043,194.334503 665.370178,195.523438 660.495911,195.953476 
	C654.723633,196.462738 649.620056,194.961761 645.987976,190.008804 
	C645.045776,188.723846 645.094055,186.978668 645.619141,186.068771 
	C646.943665,183.773758 649.578979,183.320724 651.987122,183.608093 
	C653.276978,183.762009 654.830261,184.470993 655.634644,186.077850 
	C654.045654,187.207672 652.368896,187.674164 650.500000,187.500000 
"/>
<path fill="none" opacity="1.000000" stroke="#000000" stroke-linecap="round" stroke-linejoin="round" stroke-width="2.000000"
	d="
M349.000000,148.000000 
	C351.687469,142.472015 353.756226,136.784927 353.500214,130.068497 
	C348.167725,129.339691 343.214874,128.834274 338.379486,132.855072 
	C335.231293,135.472900 331.337494,137.048340 326.466705,136.188553 
	C320.036652,135.053497 314.169952,138.317108 308.533783,141.069199 
	C303.709412,143.424911 299.640717,147.339127 294.000000,148.000000 
"/>
<path fill="none" opacity="1.000000" stroke="#000000" stroke-linecap="round" stroke-linejoin="round" stroke-width="2.000000"
	d="
M485.500000,407.500000 
	C479.959412,402.639099 473.428070,402.459320 467.041992,404.623871 
	C459.990997,407.013824 453.320892,410.457855 446.964417,414.443237 
	C445.675842,415.251160 445.338318,416.504150 444.500000,417.500000 
"/>
<path fill="none" opacity="1.000000" stroke="#000000" stroke-linecap="round" stroke-linejoin="round" stroke-width="10.000000"
	d="
M442.000000,269.000000 
	C444.500000,269.000000 447.000244,269.022156 449.499939,268.994965 
	C453.577148,268.950653 456.705017,269.956299 459.137299,273.915649 
	C462.417603,279.255402 466.992920,283.787109 470.426178,289.048187 
	C476.057373,297.677338 484.235474,301.157684 494.000000,302.000000 
"/>
<path fill="none" opacity="1.000000" stroke="#000000" stroke-linecap="round" stroke-linejoin="round" stroke-width="3.000000"
	d="
M363.000000,165.999985 
	C361.833344,166.333328 360.668518,166.948547 359.499725,166.956207 
	C348.333527,167.029510 337.166656,167.000000 326.000000,167.000000 
	C321.833344,167.000000 317.663208,166.897873 313.501312,167.038986 
	C311.070801,167.121399 308.809723,166.498672 306.500000,166.000000 
"/>
<path fill="none" opacity="1.000000" stroke="#000000" stroke-linecap="round" stroke-linejoin="round" stroke-width="2.000000"
	d="
M559.250000,150.500000 
	C556.973877,143.997864 553.659607,137.742294 554.680847,130.036240 
	C559.750000,129.486130 564.502014,128.668762 569.240845,133.250900 
	C571.679565,135.608932 575.888184,136.845871 580.533936,136.276871 
	C588.044556,135.357025 594.882935,139.170563 601.473816,142.551102 
	C604.461426,144.083496 607.166687,146.166656 610.000000,147.999985 
"/>
<path fill="none" opacity="1.000000" stroke="#000000" stroke-linecap="round" stroke-linejoin="round" stroke-width="3.000000"
	d="
M544.500000,166.000000 
	C545.583618,167.332306 547.099548,166.989578 548.500000,166.991409 
	C560.166687,167.006561 571.833313,167.000000 583.500000,167.000000 
"/>
<path fill="none" opacity="1.000000" stroke="#000000" stroke-linecap="round" stroke-linejoin="round" stroke-width="3.000000"
	d="
M391.000000,182.000000 
	C396.691406,180.432144 401.818878,177.820694 403.922913,171.972260 
	C407.113220,163.104538 405.357544,156.319443 396.489441,152.524658 
	C393.430542,151.215698 390.293976,151.598663 388.083374,154.074432 
	C386.558319,155.782410 385.863495,157.954681 387.418732,160.548721 
	C389.892700,164.675064 392.670776,162.466995 395.500000,161.500000 
"/>
<path fill="none" opacity="1.000000" stroke="#000000" stroke-linecap="round" stroke-linejoin="round" stroke-width="2.000000"
	d="
M410.500000,114.000000 
	C405.958618,110.677757 400.997314,110.989601 396.008820,112.528549 
	C390.470337,114.237144 384.869598,115.866196 379.571747,118.165344 
	C377.752838,118.954727 376.173279,118.699730 374.500000,119.000000 
"/>
<path fill="none" opacity="1.000000" stroke="#000000" stroke-linecap="round" stroke-linejoin="round" stroke-width="6.000000"
	d="
M557.500000,241.500000 
	C550.693726,243.685989 549.901917,250.485504 547.727722,255.596863 
	C543.138367,266.385620 539.052429,277.395447 534.014771,288.007019 
	C533.406250,289.288849 533.174805,290.769867 532.461914,291.977509 
	C531.164001,294.176208 532.215454,297.371124 529.954529,298.934235 
	C526.578247,301.268463 522.606201,302.045502 518.500000,302.000732 
	C518.000061,301.995270 517.500000,302.000000 517.000000,302.000000 
"/>
<path fill="none" opacity="1.000000" stroke="#000000" stroke-linecap="round" stroke-linejoin="round" stroke-width="2.000000"
	d="
M571.000000,135.000000 
	C571.000000,135.166672 570.996643,135.333405 571.000488,135.499985 
	C571.185242,143.436401 575.169556,147.840561 582.972839,149.619141 
	C588.281616,150.829147 593.333313,153.166656 598.500000,154.999985 
"/>
<path fill="none" opacity="1.000000" stroke="#000000" stroke-linecap="round" stroke-linejoin="round" stroke-width="3.000000"
	d="
M532.500000,119.000000 
	C525.623718,119.042229 519.799255,115.426651 513.526062,113.418495 
	C509.372864,112.088966 505.281738,111.768517 500.997101,111.915428 
	C499.211060,111.976662 498.543945,113.118561 497.500000,114.000000 
"/>
<path fill="none" opacity="1.000000" stroke="#000000" stroke-linecap="round" stroke-linejoin="round" stroke-width="2.000000"
	d="
M267.500000,171.000000 
	C262.932709,175.061783 257.824005,177.320953 251.494156,176.547806 
	C245.307343,175.792145 239.167923,177.189819 233.000000,177.500000 
"/>
<path fill="none" opacity="1.000000" stroke="#000000" stroke-linecap="round" stroke-linejoin="round" stroke-width="3.000000"
	d="
M556.000000,372.000000 
	C552.094299,362.626160 548.188599,353.252350 543.759766,342.623108 
	C539.955994,349.610413 537.741577,356.061432 535.079834,362.874939 
	C540.833313,362.911987 546.166687,363.466217 551.500000,362.500000 
"/>
<path fill="none" opacity="1.000000" stroke="#000000" stroke-linecap="round" stroke-linejoin="round" stroke-width="3.000000"
	d="
M405.000000,372.000000 
	C408.905945,362.626312 412.811920,353.252625 417.167603,342.799652 
	C421.249725,349.515900 422.934692,356.210175 426.068359,362.875702 
	C420.333344,362.873932 415.166656,363.526794 410.000000,362.500000 
"/>
<path fill="none" opacity="1.000000" stroke="#000000" stroke-linecap="round" stroke-linejoin="round" stroke-width="3.000000"
	d="
M695.000000,165.499985 
	C697.333313,163.666656 699.974121,162.107712 701.919495,159.928116 
	C704.172668,157.403564 704.131531,153.818832 701.854309,151.653183 
	C699.816589,149.715240 697.061890,147.100708 693.416687,150.408173 
	C690.638000,152.929382 690.831665,154.545776 695.500000,158.000000 
"/>
<path fill="none" opacity="1.000000" stroke="#000000" stroke-linecap="round" stroke-linejoin="round" stroke-width="3.000000"
	d="
M329.500000,133.000000 
	C324.892700,130.269882 320.314392,132.810928 316.041962,133.701340 
	C307.061310,135.572983 298.143890,136.798721 289.001312,135.985352 
	C283.401459,135.487137 277.933044,134.453186 272.995850,131.506943 
	C267.203827,128.050537 265.484802,122.956825 269.000000,119.500008 
	C271.807556,116.739082 274.857300,116.884300 279.613708,120.076317 
	C278.866028,122.961052 277.671600,125.490974 274.500000,126.500000 
"/>
<path fill="none" opacity="1.000000" stroke="#000000" stroke-linecap="round" stroke-linejoin="round" stroke-width="12.000000"
	d="
M558.000000,227.500000 
	C558.544617,228.500000 558.225708,229.442810 558.055176,230.508820 
	C556.299866,241.479706 563.070618,250.049118 566.631531,259.450195 
	C570.377319,269.339417 575.167358,278.833008 579.492249,288.503448 
	C579.554382,288.642334 579.437012,288.869812 579.509277,288.994629 
	C581.059692,291.671967 579.536621,295.566010 582.991943,297.514343 
	C587.973083,300.323029 593.155029,302.319092 599.000000,302.000000 
"/>
<path fill="none" opacity="1.000000" stroke="#000000" stroke-linecap="round" stroke-linejoin="round" stroke-width="7.000000"
	d="
M778.000000,277.000000 
	C767.500000,277.000000 757.000000,277.000000 746.500000,277.000000 
"/>
<path fill="none" opacity="1.000000" stroke="#000000" stroke-linecap="round" stroke-linejoin="round" stroke-width="7.000000"
	d="
M572.000000,274.000000 
	C561.931091,277.314972 551.725464,276.459076 541.500000,275.000000 
"/>
<path fill="none" opacity="1.000000" stroke="#000000" stroke-linecap="round" stroke-linejoin="round" stroke-width="4.000000"
	d="
M561.500000,83.500000 
	C570.734314,91.867119 569.598450,100.455536 558.517700,106.532280 
	C557.280151,107.210953 555.314575,106.973709 555.000000,109.000000 
"/>
<path fill="none" opacity="1.000000" stroke="#000000" stroke-linecap="round" stroke-linejoin="round" stroke-width="3.000000"
	d="
M315.500000,342.000000 
	C310.494446,342.000000 305.488892,342.000000 300.250000,342.000000 
	C300.250000,351.833344 300.250000,361.166656 300.250000,371.000000 
	C305.488892,371.000000 310.494446,371.000000 315.500000,371.000000 
"/>
<path fill="none" opacity="1.000000" stroke="#000000" stroke-linecap="round" stroke-linejoin="round" stroke-width="3.000000"
	d="
M510.500000,161.500000 
	C511.333344,161.666672 512.337524,161.592590 512.970459,162.041656 
	C515.712219,163.987122 518.091492,163.119354 519.941650,160.950211 
	C521.549438,159.065201 520.835144,157.073364 519.581360,154.951904 
	C517.840332,152.005981 515.189636,151.502518 512.519897,152.090302 
	C506.704468,153.370667 502.430328,157.929947 502.036438,163.002823 
	C501.507629,169.813461 503.952240,176.977783 510.958923,180.092392 
	C513.757629,181.336441 516.539490,182.360275 519.500000,183.000000 
"/>
<path fill="none" opacity="1.000000" stroke="#000000" stroke-linecap="round" stroke-linejoin="round" stroke-width="3.000000"
	d="
M381.000000,343.000000 
	C381.000000,352.500000 381.000000,362.000000 381.000000,371.500000 
"/>
<path fill="none" opacity="1.000000" stroke="#000000" stroke-linecap="round" stroke-linejoin="round" stroke-width="3.000000"
	d="
M631.000000,343.000000 
	C631.000000,352.500000 631.000000,362.000000 631.000000,371.500000 
"/>
<path fill="none" opacity="1.000000" stroke="#000000" stroke-linecap="round" stroke-linejoin="round" stroke-width="4.000000"
	d="
M605.500000,164.750000 
	C612.684143,162.541046 619.958069,161.204208 627.499451,162.503265 
	C628.336609,162.647461 629.262146,162.119949 630.009094,162.992233 
	C635.477417,169.377884 642.681396,164.906891 649.014832,165.906052 
	C655.994263,167.007126 663.206177,166.556961 670.000000,169.000000 
"/>
<path fill="none" opacity="1.000000" stroke="#000000" stroke-linecap="round" stroke-linejoin="round" stroke-width="3.000000"
	d="
M600.000000,341.500000 
	C600.000000,350.836304 600.000000,360.172607 600.000000,369.508942 
	C591.708740,361.952148 586.928528,351.935272 579.000000,344.500000 
"/>
<path fill="none" opacity="1.000000" stroke="#000000" stroke-linecap="round" stroke-linejoin="round" stroke-width="3.000000"
	d="
M211.500000,158.000000 
	C214.001404,157.016174 215.577469,155.609192 215.617905,152.501541 
	C215.646835,150.277740 214.188385,149.324661 212.978928,149.132919 
	C210.129822,148.681274 207.405563,148.807083 205.387512,151.927246 
	C203.548431,154.770706 203.552200,157.002930 205.501022,159.499191 
	C207.525116,162.091904 210.548599,163.439255 213.000000,165.500000 
"/>
<path fill="none" opacity="1.000000" stroke="#000000" stroke-linecap="round" stroke-linejoin="round" stroke-width="3.000000"
	d="
M578.000000,341.500000 
	C578.000000,347.000000 578.000000,352.500000 578.000000,358.000000 
	C578.000000,362.500000 578.000000,367.000000 578.000000,371.500000 
"/>
<path fill="none" opacity="1.000000" stroke="#000000" stroke-linecap="round" stroke-linejoin="round" stroke-width="2.000000"
	d="
M335.000000,144.000000 
	C328.286560,149.474518 319.909241,150.940598 311.971375,153.407867 
	C310.853699,153.755249 310.283844,154.417526 309.500000,155.000000 
"/>
<path fill="none" opacity="1.000000" stroke="#000000" stroke-linecap="round" stroke-linejoin="round" stroke-width="2.000000"
	d="
M425.500000,424.500000 
	C419.667969,430.225281 412.062561,431.880310 404.490692,433.455170 
	C399.173492,434.561096 393.950989,434.305878 388.967285,431.559326 
	C386.412994,430.151611 384.668945,428.498291 384.500000,425.500000 
"/>
<path fill="none" opacity="1.000000" stroke="#000000" stroke-linecap="round" stroke-linejoin="round" stroke-width="5.000000"
	d="
M357.000000,142.000000 
	C358.928070,145.059647 358.999329,148.622803 359.434692,152.008392 
	C360.433533,159.776276 363.272827,166.539978 368.992401,172.007935 
	C371.575165,174.477051 372.489685,177.913132 374.000000,181.000000 
"/>
<path fill="none" opacity="1.000000" stroke="#000000" stroke-linecap="round" stroke-linejoin="round" stroke-width="3.000000"
	d="
M278.500000,371.500000 
	C274.820587,369.368378 274.042938,365.146210 272.230530,361.872375 
	C270.483246,358.716217 268.793732,357.579742 265.496490,357.970306 
	C264.017242,358.145569 262.500000,358.000000 261.000000,358.000000 
"/>
<path fill="none" opacity="1.000000" stroke="#000000" stroke-linecap="round" stroke-linejoin="round" stroke-width="5.000000"
	d="
M550.000000,143.000000 
	C548.411438,145.795135 548.119507,148.807892 547.910461,151.994125 
	C547.406250,159.677689 544.033997,166.311600 538.940613,171.946289 
	C536.450500,174.701004 534.387085,177.591400 533.000000,181.000000 
"/>
<path fill="none" opacity="1.000000" stroke="#000000" stroke-linecap="round" stroke-linejoin="round" stroke-width="7.000000"
	d="
M268.500000,279.500000 
	C268.470581,275.393799 268.498596,271.372589 266.610474,267.446869 
	C265.438324,265.009766 264.118103,263.940826 261.499664,263.973999 
	C255.167358,264.054199 248.833328,264.000000 242.500000,264.000000 
"/>
<path fill="none" opacity="1.000000" stroke="#000000" stroke-linecap="round" stroke-linejoin="round" stroke-width="3.000000"
	d="
M553.500000,81.500008 
	C552.333313,81.666672 551.155884,81.779579 550.002197,82.011093 
	C547.527710,82.507645 545.542358,84.061371 545.664429,86.491737 
	C545.753906,88.271912 546.820862,90.033958 549.459290,90.669060 
	C552.367249,91.369011 553.931396,90.869278 555.000000,88.250000 
"/>
<path fill="none" opacity="1.000000" stroke="#000000" stroke-linecap="round" stroke-linejoin="round" stroke-width="3.000000"
	d="
M619.000000,140.500000 
	C619.000000,147.666672 619.000000,154.833328 619.000000,162.000000 
"/>
<path fill="none" opacity="1.000000" stroke="#000000" stroke-linecap="round" stroke-linejoin="round" stroke-width="5.000000"
	d="
M746.250000,323.000000 
	C743.000000,324.666687 739.789307,326.416382 736.489685,327.978210 
	C732.684998,329.779083 728.434204,328.473694 724.500000,329.500000 
"/>
<path fill="none" opacity="1.000000" stroke="#000000" stroke-linecap="round" stroke-linejoin="round" stroke-width="6.000000"
	d="
M618.500000,163.000000 
	C619.064270,170.296432 619.746643,177.563339 623.750000,184.000000 
"/>
<path fill="none" opacity="1.000000" stroke="#000000" stroke-linecap="round" stroke-linejoin="round" stroke-width="5.000000"
	d="
M145.500000,323.000000 
	C139.462906,328.277588 132.091431,329.244080 124.500000,329.500000 
"/>
<path fill="none" opacity="1.000000" stroke="#000000" stroke-linecap="round" stroke-linejoin="round" stroke-width="2.000000"
	d="
M382.000000,110.000000 
	C375.989258,109.226463 369.854645,107.975594 365.506744,114.004860 
	C364.376617,115.572006 362.506134,115.347107 361.000000,116.000000 
"/>
<path fill="none" opacity="1.000000" stroke="#000000" stroke-linecap="round" stroke-linejoin="round" stroke-width="3.000000"
	d="
M290.000000,162.500000 
	C292.868134,162.537613 295.765076,162.209045 298.504486,163.490402 
	C302.571838,165.392929 306.478607,162.653214 310.500000,163.000000 
"/>
<path fill="none" opacity="1.000000" stroke="#000000" stroke-linecap="round" stroke-linejoin="round" stroke-width="2.000000"
	d="
M640.500000,171.000000 
	C646.190491,176.571304 653.011597,177.620300 660.500000,176.000000 
"/>
<path fill="none" opacity="1.000000" stroke="#000000" stroke-linecap="round" stroke-linejoin="round" stroke-width="3.000000"
	d="
M604.000000,166.000000 
	C599.426697,167.640320 594.677063,166.826904 589.999573,166.987335 
	C587.835449,167.061584 585.666687,167.000000 583.500000,167.000000 
"/>
<path fill="none" opacity="1.000000" stroke="#000000" stroke-linecap="round" stroke-linejoin="round" stroke-width="8.000000"
	d="
M554.000000,110.000000 
	C552.593384,115.030563 555.752869,119.554070 555.669312,124.502861 
	C555.642944,126.062004 555.729858,127.843681 556.000000,129.500000 
"/>
<path fill="none" opacity="1.000000" stroke="#000000" stroke-linecap="round" stroke-linejoin="round" stroke-width="3.000000"
	d="
M554.000000,130.500000 
	C547.500000,131.000000 541.000000,131.500000 534.500000,132.000000 
"/>
<path fill="none" opacity="1.000000" stroke="#000000" stroke-linecap="round" stroke-linejoin="round" stroke-width="5.000000"
	d="
M441.000000,297.000000 
	C435.005493,300.638062 428.643280,302.842163 421.500000,302.000000 
"/>
<path fill="none" opacity="1.000000" stroke="#000000" stroke-linecap="round" stroke-linejoin="round" stroke-width="3.000000"
	d="
M354.000000,130.500000 
	C356.565918,130.338974 359.222961,130.289383 361.469788,131.553696 
	C365.576019,133.864304 369.500000,130.472626 373.500000,131.500000 
"/>
<path fill="none" opacity="1.000000" stroke="#000000" stroke-linecap="round" stroke-linejoin="round" stroke-width="5.000000"
	d="
M359.500000,302.000000 
	C352.436523,302.689026 346.037811,301.081512 340.500000,296.500000 
"/>
<path fill="none" opacity="1.000000" stroke="#000000" stroke-linecap="round" stroke-linejoin="round" stroke-width="3.000000"
	d="
M221.500000,62.500000 
	C225.057602,68.335716 224.680634,75.205910 226.414841,81.523376 
	C226.689316,82.523193 225.833328,83.833336 225.500000,85.000000 
"/>
<path fill="none" opacity="1.000000" stroke="#000000" stroke-linecap="round" stroke-linejoin="round" stroke-width="3.000000"
	d="
M377.500000,188.000000 
	C377.597229,194.590836 380.499939,200.423431 382.500000,206.500000 
"/>
<path fill="none" opacity="1.000000" stroke="#000000" stroke-linecap="round" stroke-linejoin="round" stroke-width="4.000000"
	d="
M782.500000,258.500000 
	C782.529358,264.187164 782.306519,269.835541 779.487061,274.992950 
	C778.732605,276.373047 778.734558,277.626038 779.486572,279.007324 
	C782.120605,283.845520 782.549377,289.130219 782.500000,294.500000 
"/>
<path fill="none" opacity="1.000000" stroke="#000000" stroke-linecap="round" stroke-linejoin="round" stroke-width="13.000000"
	d="
M290.750000,148.000000 
	C288.880341,153.049484 288.440369,157.968338 289.188324,163.541824 
	C289.987244,169.494812 288.370575,175.785538 285.750000,181.500000 
"/>
<path fill="none" opacity="1.000000" stroke="#000000" stroke-linecap="round" stroke-linejoin="round" stroke-width="2.000000"
	d="
M443.500000,100.000000 
	C437.464661,101.410828 431.031982,101.662689 426.000000,106.000000 
"/>
<path fill="none" opacity="1.000000" stroke="#000000" stroke-linecap="round" stroke-linejoin="round" stroke-width="8.000000"
	d="
M590.500000,65.750000 
	C587.284790,67.205315 585.757263,70.514977 583.025696,72.534721 
	C580.570496,74.350090 578.413147,74.374878 575.978088,72.528885 
	C573.420898,70.590279 573.489685,68.280251 575.044983,66.031105 
	C577.687073,62.210308 576.780640,57.511917 578.500000,53.500000 
"/>
<path fill="none" opacity="1.000000" stroke="#000000" stroke-linecap="round" stroke-linejoin="round" stroke-width="5.000000"
	d="
M685.500000,275.500000 
	C684.666687,280.000000 683.990906,284.539368 682.884094,288.971069 
	C682.622070,290.020111 682.203552,291.481812 682.586975,291.924713 
	C685.280334,295.036041 684.555115,298.984253 685.500000,302.500000 
"/>
<path fill="none" opacity="1.000000" stroke="#000000" stroke-linecap="round" stroke-linejoin="round" stroke-width="2.000000"
	d="
M647.500000,167.000000 
	C647.685547,167.740555 647.141418,168.476898 648.462036,169.082794 
	C654.217102,171.723450 659.783447,174.773407 665.520996,177.455063 
	C668.400635,178.800980 671.500000,178.588318 674.500000,177.500000 
"/>
<path fill="none" opacity="1.000000" stroke="#000000" stroke-linecap="round" stroke-linejoin="round" stroke-width="3.000000"
	d="
M680.000000,82.500000 
	C675.168274,79.589935 669.968628,78.960999 664.500000,80.000000 
"/>
<path fill="none" opacity="1.000000" stroke="#000000" stroke-linecap="round" stroke-linejoin="round" stroke-width="3.000000"
	d="
M329.000000,53.500000 
	C330.333313,58.666668 331.666656,63.833336 333.000000,69.000000 
"/>
<path fill="none" opacity="1.000000" stroke="#000000" stroke-linecap="round" stroke-linejoin="round" stroke-width="2.000000"
	d="
M333.000000,72.500000 
	C337.880859,77.263451 343.131165,76.300194 348.500000,73.500000 
"/>
<path fill="none" opacity="1.000000" stroke="#000000" stroke-linecap="round" stroke-linejoin="round" stroke-width="4.000000"
	d="
M268.500000,249.500000 
	C269.222076,254.940704 267.130035,259.724792 265.000000,264.500000 
"/>
<path fill="none" opacity="1.000000" stroke="#000000" stroke-linecap="round" stroke-linejoin="round" stroke-width="5.000000"
	d="
M685.500000,231.500000 
	C684.888916,234.725159 684.702942,238.084198 682.976318,240.985886 
	C681.855835,242.868820 683.160217,244.341141 683.479126,246.003998 
	C684.211731,249.824692 684.833374,253.666656 685.500000,257.500000 
"/>
<path fill="none" opacity="1.000000" stroke="#000000" stroke-linecap="round" stroke-linejoin="round" stroke-width="2.000000"
	d="
M233.500000,90.000000 
	C233.400864,95.155411 233.101578,100.344177 236.000000,105.000000 
"/>
<path fill="none" opacity="1.000000" stroke="#000000" stroke-linecap="round" stroke-linejoin="round" stroke-width="2.000000"
	d="
M244.500000,86.499992 
	C243.500000,86.666664 242.281601,86.523666 241.535294,87.050026 
	C236.517395,90.588989 231.874069,89.238708 227.561005,85.920692 
	C226.371567,85.005669 225.580505,85.183640 224.095779,85.703850 
	C223.999725,90.927032 223.186096,96.295311 221.500000,101.500000 
"/>
<path fill="none" opacity="1.000000" stroke="#000000" stroke-linecap="round" stroke-linejoin="round" stroke-width="2.000000"
	d="
M353.000000,85.500000 
	C351.826904,87.902565 352.524170,89.746933 355.016418,90.441002 
	C357.605347,91.161995 360.212372,90.345222 361.375427,87.939766 
	C362.192993,86.248909 362.020630,83.978516 359.507965,82.979927 
	C357.495880,82.180260 355.770233,80.684784 353.500000,80.500000 
"/>
<path fill="none" opacity="1.000000" stroke="#000000" stroke-linecap="round" stroke-linejoin="round" stroke-width="5.000000"
	d="
M579.500000,298.000000 
	C575.443848,302.150726 570.203003,302.006622 565.000000,302.000000 
"/>
<path fill="none" opacity="1.000000" stroke="#000000" stroke-linecap="round" stroke-linejoin="round" stroke-width="5.000000"
	d="
M531.000000,299.000000 
	C535.401367,302.338837 540.327209,302.635376 545.500000,301.500000 
"/>
<path fill="none" opacity="1.000000" stroke="#000000" stroke-linecap="round" stroke-linejoin="round" stroke-width="2.000000"
	d="
M684.500000,88.500000 
	C684.924744,93.160133 683.523438,97.950706 685.500000,102.500000 
"/>
<path fill="none" opacity="1.000000" stroke="#000000" stroke-linecap="round" stroke-linejoin="round" stroke-width="3.000000"
	d="
M314.500000,356.000000 
	C310.000000,356.000000 305.500000,356.000000 301.000000,356.000000 
"/>
<path fill="none" opacity="1.000000" stroke="#000000" stroke-linecap="round" stroke-linejoin="round" stroke-width="2.000000"
	d="
M546.000000,116.000015 
	C544.833313,115.333351 543.397766,114.908524 542.544556,113.959946 
	C537.746521,108.625572 531.739563,108.898605 525.500000,110.000000 
"/>
<path fill="none" opacity="1.000000" stroke="#000000" stroke-linecap="round" stroke-linejoin="round" stroke-width="3.000000"
	d="
M560.500000,67.000000 
	C565.105347,65.898743 569.338074,67.219086 573.500000,69.000000 
"/>
<path fill="none" opacity="1.000000" stroke="#000000" stroke-linecap="round" stroke-linejoin="round" stroke-width="2.000000"
	d="
M259.000000,168.000000 
	C255.636642,171.767807 250.074585,171.609390 246.500000,175.000000 
"/>
<path fill="none" opacity="1.000000" stroke="#000000" stroke-linecap="round" stroke-linejoin="round" stroke-width="3.000000"
	d="
M480.500000,104.000000 
	C474.833344,102.666664 469.166656,101.333328 463.500000,100.000000 
"/>
<path fill="none" opacity="1.000000" stroke="#000000" stroke-linecap="round" stroke-linejoin="round" stroke-width="2.000000"
	d="
M505.000000,359.000000 
	C507.575531,363.121338 509.099274,367.873749 512.500000,371.500000 
"/>
<path fill="none" opacity="1.000000" stroke="#000000" stroke-linecap="round" stroke-linejoin="round" stroke-width="3.000000"
	d="
M341.000000,129.000000 
	C336.427429,125.979408 331.317474,128.153290 326.500000,127.500000 
"/>
<path fill="none" opacity="1.000000" stroke="#000000" stroke-linecap="round" stroke-linejoin="round" stroke-width="4.000000"
	d="
M225.000000,175.000000 
	C221.037308,177.066574 216.188446,176.671600 212.500000,179.500000 
"/>
<path fill="none" opacity="1.000000" stroke="#000000" stroke-linecap="round" stroke-linejoin="round" stroke-width="2.000000"
	d="
M647.500000,153.500000 
	C644.500000,153.763550 641.601685,152.409790 638.475159,153.423355 
	C634.235596,154.797775 632.091797,158.045456 630.000000,161.500000 
"/>
<path fill="none" opacity="1.000000" stroke="#000000" stroke-linecap="round" stroke-linejoin="round" stroke-width="3.000000"
	d="
M376.000000,191.000000 
	C372.367920,194.227493 368.142670,194.983322 363.500000,194.000000 
"/>
<path fill="none" opacity="1.000000" stroke="#000000" stroke-linecap="round" stroke-linejoin="round" stroke-width="2.000000"
	d="
M315.500000,156.500000 
	C311.157074,156.451981 306.887024,156.768402 303.000000,159.000000 
"/>
<path fill="none" opacity="1.000000" stroke="#000000" stroke-linecap="round" stroke-linejoin="round" stroke-width="3.000000"
	d="
M339.500000,127.500000 
	C336.096497,120.353752 330.088470,120.152931 323.500000,121.500000 
"/>
<path fill="none" opacity="1.000000" stroke="#000000" stroke-linecap="round" stroke-linejoin="round" stroke-width="3.000000"
	d="
M569.500000,127.500000 
	C573.495422,127.776901 577.538330,126.913475 581.500000,128.000000 
"/>
<path fill="none" opacity="1.000000" stroke="#000000" stroke-linecap="round" stroke-linejoin="round" stroke-width="6.000000"
	d="
M340.500000,132.000000 
	C340.500000,135.833328 340.500000,139.666672 340.500000,143.500000 
"/>
<path fill="none" opacity="1.000000" stroke="#000000" stroke-linecap="round" stroke-linejoin="round" stroke-width="3.000000"
	d="
M277.000000,159.000000 
	C273.391235,152.975449 267.939209,151.712616 261.500000,153.000000 
"/>
<path fill="none" opacity="1.000000" stroke="#000000" stroke-linecap="round" stroke-linejoin="round" stroke-width="2.000000"
	d="
M324.500000,166.000000 
	C324.294281,160.524216 323.478271,159.533325 317.500000,157.500000 
"/>
<path fill="none" opacity="1.000000" stroke="#000000" stroke-linecap="round" stroke-linejoin="round" stroke-width="3.000000"
	d="
M546.000000,128.000000 
	C542.166687,127.166664 538.333313,126.333328 534.500000,125.500000 
"/>
<path fill="none" opacity="1.000000" stroke="#000000" stroke-linecap="round" stroke-linejoin="round" stroke-width="3.000000"
	d="
M583.500000,122.000000 
	C579.679688,120.643105 576.107300,122.013435 572.500000,123.000000 
"/>
<path fill="none" opacity="1.000000" stroke="#000000" stroke-linecap="round" stroke-linejoin="round" stroke-width="2.000000"
	d="
M447.500000,435.000000 
	C444.144653,437.455963 440.519348,439.372009 436.500000,440.500000 
"/>
<path fill="none" opacity="1.000000" stroke="#000000" stroke-linecap="round" stroke-linejoin="round" stroke-width="2.000000"
	d="
M398.500000,177.000000 
	C394.833344,176.168381 391.166656,176.168381 387.500000,177.000000 
"/>
<path fill="none" opacity="1.000000" stroke="#000000" stroke-linecap="round" stroke-linejoin="round" stroke-width="2.000000"
	d="
M519.500000,177.000000 
	C515.833313,176.168381 512.166687,176.168381 508.500000,177.000000 
"/>
<path fill="none" opacity="1.000000" stroke="#000000" stroke-linecap="round" stroke-linejoin="round" stroke-width="3.000000"
	d="
M373.500000,125.000015 
	C370.000000,125.666679 366.500000,126.333344 363.000000,127.000015 
"/>
<path fill="none" opacity="1.000000" stroke="#000000" stroke-linecap="round" stroke-linejoin="round" stroke-width="5.000000"
	d="
M527.500000,175.500000 
	C527.500000,179.000000 527.500000,182.500000 527.500000,186.000000 
"/>
<path fill="none" opacity="1.000000" stroke="#000000" stroke-linecap="round" stroke-linejoin="round" stroke-width="2.000000"
	d="
M549.500000,110.000000 
	C545.927673,108.647842 542.448486,109.251457 539.000000,110.500000 
"/>
<path fill="none" opacity="1.000000" stroke="#000000" stroke-linecap="round" stroke-linejoin="round" stroke-width="3.000000"
	d="
M588.500000,158.500000 
	C584.026733,159.351700 582.435730,162.184998 583.000000,166.500000 
"/>
<path fill="none" opacity="1.000000" stroke="#000000" stroke-linecap="round" stroke-linejoin="round" stroke-width="3.000000"
	d="
M496.500000,120.000000 
	C499.272675,122.768585 502.612640,123.916275 506.500000,123.500000 
"/>
<path fill="none" opacity="1.000000" stroke="#000000" stroke-linecap="round" stroke-linejoin="round" stroke-width="2.000000"
	d="
M368.500000,110.000000 
	C365.166656,109.534485 361.833344,107.932343 358.500000,110.000000 
"/>
<path fill="none" opacity="1.000000" stroke="#000000" stroke-linecap="round" stroke-linejoin="round" stroke-width="2.000000"
	d="
M338.000000,76.500000 
	C339.133026,79.793427 338.358002,83.659264 341.000000,86.500000 
"/>
<path fill="none" opacity="1.000000" stroke="#000000" stroke-linecap="round" stroke-linejoin="round" stroke-width="3.000000"
	d="
M440.000000,417.000000 
	C438.175507,420.910614 432.780029,420.536041 431.000000,424.500000 
"/>
<path fill="none" opacity="1.000000" stroke="#000000" stroke-linecap="round" stroke-linejoin="round" stroke-width="5.000000"
	d="
M683.500000,164.500000 
	C683.648254,167.717361 684.340332,170.991959 682.500000,174.000000 
"/>
<path fill="none" opacity="1.000000" stroke="#000000" stroke-linecap="round" stroke-linejoin="round" stroke-width="2.000000"
	d="
M308.000000,169.000000 
	C309.796021,171.793304 310.860565,175.584076 315.500000,174.500000 
"/>
<path fill="none" opacity="1.000000" stroke="#000000" stroke-linecap="round" stroke-linejoin="round" stroke-width="3.000000"
	d="
M390.500000,342.000000 
	C384.166656,342.000000 377.833344,342.000000 371.500000,342.000000 
"/>
<path fill="none" opacity="1.000000" stroke="#000000" stroke-linecap="round" stroke-linejoin="round" stroke-width="2.000000"
	d="
M605.000000,159.000000 
	C602.079956,157.229446 598.813232,156.776443 595.500000,156.500000 
"/>
<path fill="none" opacity="1.000000" stroke="#000000" stroke-linecap="round" stroke-linejoin="round" stroke-width="3.000000"
	d="
M640.500000,342.000000 
	C634.166687,342.000000 627.833313,342.000000 621.500000,342.000000 
"/>
<path fill="none" opacity="1.000000" stroke="#000000" stroke-linecap="round" stroke-linejoin="round" stroke-width="3.000000"
	d="
M426.000000,363.500000 
	C427.333313,366.333344 428.666656,369.166656 430.000000,372.000000 
"/>
<path fill="none" opacity="1.000000" stroke="#000000" stroke-linecap="round" stroke-linejoin="round" stroke-width="2.000000"
	d="
M535.000000,363.500000 
	C533.666626,366.333313 532.333313,369.166656 531.000000,372.000000 
"/>
<path fill="none" opacity="1.000000" stroke="#000000" stroke-linecap="round" stroke-linejoin="round" stroke-width="2.000000"
	d="
M700.500000,86.500000 
	C697.732300,87.950233 695.164917,86.194290 692.500000,86.000000 
"/>
<path fill="none" opacity="1.000000" stroke="#000000" stroke-linecap="round" stroke-linejoin="round" stroke-width="3.000000"
	d="
M409.500000,122.000000 
	C407.205444,124.484566 404.253540,123.463348 401.500000,123.500000 
"/>
<path fill="none" opacity="1.000000" stroke="#000000" stroke-linecap="round" stroke-linejoin="round" stroke-width="3.000000"
	d="
M677.000000,161.500000 
	C676.333313,164.000000 675.666626,166.500000 675.000000,169.000000 
"/>
<path fill="none" opacity="1.000000" stroke="#000000" stroke-linecap="round" stroke-linejoin="round" stroke-width="3.000000"
	d="
M613.000000,173.000000 
	C612.712952,175.542603 610.817383,177.763474 611.500000,180.500000 
"/>
<path fill="none" opacity="1.000000" stroke="#000000" stroke-linecap="round" stroke-linejoin="round" stroke-width="2.000000"
	d="
M437.500000,113.499992 
	C435.000000,113.999992 432.500000,114.499992 430.000000,114.999992 
"/>
<path fill="none" opacity="1.000000" stroke="#000000" stroke-linecap="round" stroke-linejoin="round" stroke-width="3.000000"
	d="
M270.500000,160.000000 
	C268.166656,159.833328 265.833344,159.666672 263.500000,159.500000 
"/>
<path fill="none" opacity="1.000000" stroke="#000000" stroke-linecap="round" stroke-linejoin="round" stroke-width="3.000000"
	d="
M214.500000,85.000000 
	C212.140991,85.153580 209.956238,86.527000 207.500000,86.000000 
"/>
<path fill="none" opacity="1.000000" stroke="#000000" stroke-linecap="round" stroke-linejoin="round" stroke-width="3.000000"
	d="
M505.500000,117.499992 
	C503.166656,117.666664 500.833344,117.833328 498.500000,117.999992 
"/>
<path fill="none" opacity="1.000000" stroke="#000000" stroke-linecap="round" stroke-linejoin="round" stroke-width="3.000000"
	d="
M568.000000,138.500000 
	C567.833374,140.833328 567.666687,143.166672 567.500000,145.500000 
"/>
<path fill="none" opacity="1.000000" stroke="#000000" stroke-linecap="round" stroke-linejoin="round" stroke-width="3.000000"
	d="
M221.999985,177.500000 
	C221.833328,179.833328 221.666656,182.166672 221.499985,184.500000 
"/>
<path fill="none" opacity="1.000000" stroke="#000000" stroke-linecap="round" stroke-linejoin="round" stroke-width="3.000000"
	d="
M604.500000,164.000000 
	C602.166687,163.833328 599.833313,163.666672 597.500000,163.500000 
"/>
<path fill="none" opacity="1.000000" stroke="#000000" stroke-linecap="round" stroke-linejoin="round" stroke-width="5.000000"
	d="
M533.000000,191.000000 
	C538.261597,192.527405 539.973450,196.590393 540.500000,201.500000 
"/>
<path fill="none" opacity="1.000000" stroke="#000000" stroke-linecap="round" stroke-linejoin="round" stroke-width="3.000000"
	d="
M328.500000,139.000000 
	C326.500000,140.500000 324.500000,142.000000 322.500000,143.500000 
"/>
<path fill="none" opacity="1.000000" stroke="#000000" stroke-linecap="round" stroke-linejoin="round" stroke-width="3.000000"
	d="
M542.000000,135.000000 
	C539.847778,135.427094 537.779724,136.401718 535.500000,136.000000 
"/>
<path fill="none" opacity="1.000000" stroke="#000000" stroke-linecap="round" stroke-linejoin="round" stroke-width="3.000000"
	d="
M681.000000,94.000000 
	C680.572876,96.152245 679.598267,98.220245 680.000000,100.500000 
"/>
<path fill="none" opacity="1.000000" stroke="#000000" stroke-linecap="round" stroke-linejoin="round" stroke-width="2.000000"
	d="
M673.000000,94.500000 
	C673.823547,96.445259 673.452454,98.490074 673.500000,100.500000 
"/>
<path fill="none" opacity="1.000000" stroke="#000000" stroke-linecap="round" stroke-linejoin="round" stroke-width="3.000000"
	d="
M668.000000,71.500000 
	C668.714294,73.316017 668.401978,75.505333 670.000000,77.000000 
"/>
<path fill="none" opacity="1.000000" stroke="#000000" stroke-linecap="round" stroke-linejoin="round" stroke-width="3.000000"
	d="
M669.000000,89.000000 
	C667.334961,87.882889 665.486450,87.438637 663.500000,87.500000 
"/>
<path fill="none" opacity="1.000000" stroke="#000000" stroke-linecap="round" stroke-linejoin="round" stroke-width="2.000000"
	d="
M559.500000,73.500008 
	C561.166687,74.000008 562.833313,74.500008 564.500000,75.000008 
"/>
<path fill="none" opacity="1.000000" stroke="#000000" stroke-linecap="round" stroke-linejoin="round" stroke-width="2.000000"
	d="
M368.000000,197.000000 
	C367.500000,198.500000 367.000000,200.000000 366.500000,201.500000 
"/>
</svg>